<svg xmlns="http://www.w3.org/2000/svg" xmlns:xlink="http://www.w3.org/1999/xlink" xmlns:lucid="lucid" width="480" height="505.67"><g transform="translate(-179.99999999999983 -120)" lucid:page-tab-id="dOqV17BCciJj"><path d="M240 566c0-3.3 2.7-6 6-6h328c3.3 0 6 2.7 6 6v12.67c0 3.3-2.7 6-6 6H246c-3.3 0-6-2.7-6-6z" fill="none"/><use xlink:href="#a" transform="matrix(1,0,0,1,240.00000000000003,560) translate(140.46296296296296 17.77777777777778)"/><use xlink:href="#b" transform="matrix(1,0,0,1,240.00000000000003,560) translate(170 44.44444444444444)"/><path d="M296.67 146c0-3.3 2.68-6 6-6h214.66c3.32 0 6 2.7 6 6v388c0 3.3-2.68 6-6 6H302.67c-3.32 0-6-2.7-6-6z" stroke="#5e5e5e" stroke-width="3" fill="#fff"/><path d="M560 216c0-3.3 2.7-6 6-6h68c3.3 0 6 2.7 6 6v28c0 3.3-2.7 6-6 6h-68c-3.3 0-6-2.7-6-6z" stroke="#000" stroke-opacity="0" stroke-width="3" fill="#fff" fill-opacity="0"/><use xlink:href="#c" transform="matrix(1,0,0,1,565,215) translate(-0.7716049382716008 19.444444444444443)"/><path d="M200 296c0-3.3 2.7-6 6-6h68c3.3 0 6 2.7 6 6v28c0 3.3-2.7 6-6 6h-68c-3.3 0-6-2.7-6-6z" stroke="#000" stroke-opacity="0" stroke-width="3" fill="#fff" fill-opacity="0"/><use xlink:href="#d" transform="matrix(1,0,0,1,204.99999999999983,295) translate(10.987654320987655 19.65277777777778)"/><path d="M281 310h59" stroke="#5e5e5e" stroke-width="2" fill="none"/><path d="M281.03 311H280v-2h1.03z" fill="#5e5e5e"/><path d="M355.25 310L341 314.64v-9.28z" stroke="#5e5e5e" stroke-width="2" fill="#5e5e5e"/><g class="lucid-layer" lucid:layer-id="hjvWFD3VMiqe" display="block"><path d="M380 390c0 5.52-4.48 10-10 10s-10-4.48-10-10 4.48-10 10-10 10 4.48 10 10z" stroke="#5e5e5e" stroke-width="3" fill="#fff"/><path d="M355 460h30v20h-30z" fill="none"/><path d="M355 464h30m-4.5 4h-21m4.5 4h12m-9 4h6m-1.5 4h-3m1.5-20v4z" stroke="#5e5e5e" stroke-width="3" fill="#fff"/><path d="M370 402.5V448" stroke="#5e5e5e" stroke-width="2" fill="none"/><path d="M370 401.5l1-.12v1.16h-2v-1.16z" fill="#5e5e5e"/><path d="M370 463.26L365.36 449h9.28z" stroke="#5e5e5e" stroke-width="2" fill="#5e5e5e"/><path d="M380 310c0 5.52-4.48 10-10 10s-10-4.48-10-10 4.48-10 10-10 10 4.48 10 10z" stroke="#5e5e5e" stroke-width="3" fill="#fff"/><path d="M370 322.5V360" stroke="#5e5e5e" stroke-width="2" fill="none"/><path d="M370 321.5l1-.12v1.16h-2v-1.16z" fill="#5e5e5e"/><path d="M370 375.25L365.36 361h9.28z" stroke="#5e5e5e" stroke-width="2" fill="#5e5e5e"/><path d="M465 390c0 5.52-4.48 10-10 10s-10-4.48-10-10 4.48-10 10-10 10 4.48 10 10z" stroke="#5e5e5e" stroke-width="3" fill="#fff"/><path d="M440 460h30v20h-30z" fill="none"/><path d="M440 464h30m-4.5 4h-21m4.5 4h12m-9 4h6m-1.5 4h-3m1.5-20v4z" stroke="#5e5e5e" stroke-width="3" fill="#fff"/><path d="M455 402.5V448" stroke="#5e5e5e" stroke-width="2" fill="none"/><path d="M455 401.5l1-.12v1.16h-2v-1.16z" fill="#5e5e5e"/><path d="M455 463.26L450.36 449h9.28z" stroke="#5e5e5e" stroke-width="2" fill="#5e5e5e"/><path d="M465 310c0 5.52-4.48 10-10 10s-10-4.48-10-10 4.48-10 10-10 10 4.48 10 10z" stroke="#5e5e5e" stroke-width="3" fill="#fff"/><path d="M455 322.5V360" stroke="#5e5e5e" stroke-width="2" fill="none"/><path d="M455 321.5l1-.12v1.16h-2v-1.16z" fill="#5e5e5e"/><path d="M455 375.25L450.36 361h9.28z" stroke="#5e5e5e" stroke-width="2" fill="#5e5e5e"/><path d="M465 230c0 5.52-4.48 10-10 10s-10-4.48-10-10 4.48-10 10-10 10 4.48 10 10z" stroke="#5e5e5e" stroke-width="3" fill="#fff"/><path d="M455 242.5V280" stroke="#5e5e5e" stroke-width="2" fill="none"/><path d="M455 241.5l1-.12v1.16h-2v-1.16z" fill="#5e5e5e"/><path d="M455 295.25L450.36 281h9.28z" stroke="#5e5e5e" stroke-width="2" fill="#5e5e5e"/><path d="M485 230h74" stroke="#5e5e5e" stroke-width="2" fill="none"/><path d="M469.75 230l14.26-4.64v9.28z" stroke="#5e5e5e" stroke-width="2" fill="#5e5e5e"/><path d="M560 231h-1.03v-2H560z" fill="#5e5e5e"/></g><defs><path fill="#333" d="M140-251c81 0 123 46 123 126C263-46 219 4 140 4 59 4 17-45 17-125s42-126 123-126zm0 227c63 0 89-41 89-101s-29-99-89-99c-61 0-89 39-89 99S79-25 140-24" id="e"/><path fill="#333" d="M114-163C36-179 61-72 57 0H25l-1-190h30c1 12-1 29 2 39 6-27 23-49 58-41v29" id="f"/><path fill="#333" d="M24-231v-30h32v30H24zM24 0v-190h32V0H24" id="g"/><path fill="#333" d="M177-190C167-65 218 103 67 71c-23-6-38-20-44-43l32-5c15 47 100 32 89-28v-30C133-14 115 1 83 1 29 1 15-40 15-95c0-56 16-97 71-98 29-1 48 16 59 35 1-10 0-23 2-32h30zM94-22c36 0 50-32 50-73 0-42-14-75-50-75-39 0-46 34-46 75s6 73 46 73" id="h"/><path fill="#333" d="M117-194c89-4 53 116 60 194h-32v-121c0-31-8-49-39-48C34-167 62-67 57 0H25l-1-190h30c1 10-1 24 2 32 11-22 29-35 61-36" id="i"/><g id="a"><use transform="matrix(0.06172839506172839,0,0,0.06172839506172839,0,0)" xlink:href="#e"/><use transform="matrix(0.06172839506172839,0,0,0.06172839506172839,17.28395061728395,0)" xlink:href="#f"/><use transform="matrix(0.06172839506172839,0,0,0.06172839506172839,24.629629629629626,0)" xlink:href="#g"/><use transform="matrix(0.06172839506172839,0,0,0.06172839506172839,29.50617283950617,0)" xlink:href="#h"/><use transform="matrix(0.06172839506172839,0,0,0.06172839506172839,41.85185185185185,0)" xlink:href="#g"/><use transform="matrix(0.06172839506172839,0,0,0.06172839506172839,46.72839506172839,0)" xlink:href="#i"/></g><path fill="#333" d="M135-143c-3-34-86-38-87 0 15 53 115 12 119 90S17 21 10-45l28-5c4 36 97 45 98 0-10-56-113-15-118-90-4-57 82-63 122-42 12 7 21 19 24 35" id="j"/><path fill="#333" d="M59-47c-2 24 18 29 38 22v24C64 9 27 4 27-40v-127H5v-23h24l9-43h21v43h35v23H59v120" id="k"/><path fill="#333" d="M141-36C126-15 110 5 73 4 37 3 15-17 15-53c-1-64 63-63 125-63 3-35-9-54-41-54-24 1-41 7-42 31l-33-3c5-37 33-52 76-52 45 0 72 20 72 64v82c-1 20 7 32 28 27v20c-31 9-61-2-59-35zM48-53c0 20 12 33 32 33 41-3 63-29 60-74-43 2-92-5-92 41" id="l"/><g id="c"><use transform="matrix(0.06172839506172839,0,0,0.06172839506172839,0,0)" xlink:href="#j"/><use transform="matrix(0.06172839506172839,0,0,0.06172839506172839,11.11111111111111,0)" xlink:href="#k"/><use transform="matrix(0.06172839506172839,0,0,0.06172839506172839,17.28395061728395,0)" xlink:href="#l"/><use transform="matrix(0.06172839506172839,0,0,0.06172839506172839,29.629629629629626,0)" xlink:href="#h"/><use transform="matrix(0.06172839506172839,0,0,0.06172839506172839,41.9753086419753,0)" xlink:href="#g"/><use transform="matrix(0.06172839506172839,0,0,0.06172839506172839,46.85185185185185,0)" xlink:href="#i"/><use transform="matrix(0.06172839506172839,0,0,0.06172839506172839,59.197530864197525,0)" xlink:href="#h"/></g><path fill="#333" d="M210-169c-67 3-38 105-44 169h-31v-121c0-29-5-50-35-48C34-165 62-65 56 0H25l-1-190h30c1 10-1 24 2 32 10-44 99-50 107 0 11-21 27-35 58-36 85-2 47 119 55 194h-31v-121c0-29-5-49-35-48" id="m"/><g id="d"><use transform="matrix(0.06172839506172839,0,0,0.06172839506172839,0,0)" xlink:href="#m"/><use transform="matrix(0.06172839506172839,0,0,0.06172839506172839,18.456790123456788,0)" xlink:href="#l"/><use transform="matrix(0.06172839506172839,0,0,0.06172839506172839,30.80246913580247,0)" xlink:href="#g"/><use transform="matrix(0.06172839506172839,0,0,0.06172839506172839,35.67901234567901,0)" xlink:href="#i"/></g></defs></g></svg>