<svg xmlns="http://www.w3.org/2000/svg" xmlns:xlink="http://www.w3.org/1999/xlink" xmlns:lucid="lucid" width="670" height="690.16"><g transform="translate(-164.99999999999977 -119.99999999999994)" lucid:page-tab-id="dOqV17BCciJj"><path d="M200 750.5c0-3.32 2.7-6 6-6h448c3.3 0 6 2.68 6 6V774c0 3.3-2.7 6-6 6H206c-3.3 0-6-2.7-6-6z" fill="none"/><use xlink:href="#a" transform="matrix(1,0,0,1,199.99999999999994,744.4977511244379) translate(200.46296296296296 17.77777777777778)"/><use xlink:href="#b" transform="matrix(1,0,0,1,199.99999999999994,744.4977511244379) translate(230 44.44444444444444)"/><path d="M276.67 146c0-3.3 2.68-6 6-6h294.66c3.32 0 6 2.7 6 6v563.7c0 3.33-2.68 6-6 6H282.67c-3.32 0-6-2.67-6-6z" stroke="#5e5e5e" stroke-width="3" fill="#fff"/><path d="M185 484.33c0-3.3 2.7-6 6-6h68c3.3 0 6 2.7 6 6v28c0 3.32-2.7 6-6 6h-68c-3.3 0-6-2.68-6-6z" stroke="#000" stroke-opacity="0" stroke-width="3" fill="#fff" fill-opacity="0"/><use xlink:href="#c" transform="matrix(1,0,0,1,189.99999999999977,483.3333333582265) translate(10.987654320987655 19.65277777777778)"/><path d="M266 498.33h69" stroke="#5e5e5e" stroke-width="2" fill="none"/><path d="M266.03 499.33H265v-2h1.03z" fill="#5e5e5e"/><path d="M350.25 498.33L336 502.97v-9.27z" stroke="#5e5e5e" stroke-width="2" fill="#5e5e5e"/><g class="lucid-layer" lucid:layer-id="hjvWFD3VMiqe" display="block"><path d="M375 578.33c0 5.53-4.48 10-10 10s-10-4.47-10-10c0-5.52 4.48-10 10-10s10 4.48 10 10z" stroke="#5e5e5e" stroke-width="3" fill="#fff"/><path d="M350 648.33h30v20h-30z" fill="none"/><path d="M350 652.33h30m-4.5 4h-21m4.5 4h12m-9 4h6m-1.5 4h-3m1.5-20v4z" stroke="#5e5e5e" stroke-width="3" fill="#fff"/><path d="M365 590.85v45.48" stroke="#5e5e5e" stroke-width="2" fill="none"/><path d="M365 589.85l1-.13v1.15h-2v-1.15z" fill="#5e5e5e"/><path d="M365 651.6l-4.64-14.27h9.28z" stroke="#5e5e5e" stroke-width="2" fill="#5e5e5e"/><path d="M375 498.33c0 5.53-4.48 10-10 10s-10-4.47-10-10c0-5.52 4.48-10 10-10s10 4.48 10 10z" stroke="#5e5e5e" stroke-width="3" fill="#fff"/><path d="M365 510.85v37.47" stroke="#5e5e5e" stroke-width="2" fill="none"/><path d="M365 509.85l1-.13v1.15h-2v-1.15z" fill="#5e5e5e"/><path d="M365 563.58l-4.64-14.26h9.28z" stroke="#5e5e5e" stroke-width="2" fill="#5e5e5e"/><path d="M460 578.33c0 5.53-4.48 10-10 10s-10-4.47-10-10c0-5.52 4.48-10 10-10s10 4.48 10 10z" stroke="#5e5e5e" stroke-width="3" fill="#fff"/><path d="M435 648.33h30v20h-30z" fill="none"/><path d="M435 652.33h30m-4.5 4h-21m4.5 4h12m-9 4h6m-1.5 4h-3m1.5-20v4z" stroke="#5e5e5e" stroke-width="3" fill="#fff"/><path d="M450 590.85V636.33" stroke="#5e5e5e" stroke-width="2" fill="none"/><path d="M450 589.85l1-.13v1.15h-2v-1.15z" fill="#5e5e5e"/><path d="M450 651.6l-4.64-14.27h9.28z" stroke="#5e5e5e" stroke-width="2" fill="#5e5e5e"/><path d="M460 498.33c0 5.53-4.48 10-10 10s-10-4.47-10-10c0-5.52 4.48-10 10-10s10 4.48 10 10z" stroke="#5e5e5e" stroke-width="3" fill="#fff"/><path d="M450 510.85v37.47" stroke="#5e5e5e" stroke-width="2" fill="none"/><path d="M450 509.85l1-.13v1.15h-2v-1.15z" fill="#5e5e5e"/><path d="M450 563.58l-4.64-14.26h9.28z" stroke="#5e5e5e" stroke-width="2" fill="#5e5e5e"/><path d="M460 418.33c0 5.53-4.48 10-10 10s-10-4.47-10-10c0-5.52 4.48-10 10-10s10 4.48 10 10z" stroke="#5e5e5e" stroke-width="3" fill="#fff"/><path d="M450 430.85v37.47" stroke="#5e5e5e" stroke-width="2" fill="none"/><path d="M450 429.85l1-.13v1.15h-2v-1.15z" fill="#5e5e5e"/><path d="M450 483.58l-4.64-14.26h9.28z" stroke="#5e5e5e" stroke-width="2" fill="#5e5e5e"/><path d="M423.2 239.6l-57.37-39.04" stroke="#5e5e5e" stroke-width="2" fill="none"/><path d="M435.8 248.18l-14.4-4.2 5.22-7.66z" stroke="#5e5e5e" stroke-width="2" fill="#5e5e5e"/><path d="M365.3 201.4l-2.08-1.4h3.02z" fill="#5e5e5e"/><path d="M325 166c0-3.3 2.7-6 6-6h68c3.3 0 6 2.7 6 6v28c0 3.3-2.7 6-6 6h-68c-3.3 0-6-2.7-6-6z" stroke="#000" stroke-opacity="0" stroke-width="3" fill="#fff" fill-opacity="0"/><use xlink:href="#d" transform="matrix(1,0,0,1,330,165) translate(-0.7716049382716008 19.444444444444443)"/><path d="M515 378.33c0 5.53-4.48 10-10 10s-10-4.47-10-10c0-5.52 4.48-10 10-10s10 4.48 10 10z" stroke="#5e5e5e" stroke-width="3" fill="#fff"/><path d="M494.64 385.2l-20.04 20.05" stroke="#5e5e5e" stroke-width="2" fill="none"/><path d="M495.02 384.08l.94 1.22-.63.63-1.42-1.4.93-.92z" fill="#5e5e5e"/><path d="M463.8 416.05l6.8-13.37 6.57 6.56z" stroke="#5e5e5e" stroke-width="2" fill="#5e5e5e"/><path d="M515 298.33c0 5.53-4.48 10-10 10s-10-4.47-10-10c0-5.52 4.48-10 10-10s10 4.48 10 10z" stroke="#5e5e5e" stroke-width="3" fill="#fff"/><path d="M505 310.85v37.47" stroke="#5e5e5e" stroke-width="2" fill="none"/><path d="M505 309.85l1-.13v1.15h-2v-1.15z" fill="#5e5e5e"/><path d="M505 363.58l-4.64-14.26h9.28z" stroke="#5e5e5e" stroke-width="2" fill="#5e5e5e"/><path d="M595 286c0-3.3 2.7-6 6-6h208c3.3 0 6 2.7 6 6v28c0 3.3-2.7 6-6 6H601c-3.3 0-6-2.7-6-6z" stroke="#000" stroke-opacity="0" stroke-width="3" fill="#fff" fill-opacity="0"/><use xlink:href="#e" transform="matrix(1,0,0,1,600,285) translate(0 19.65277777777778)"/><path d="M594 300h-59.2" stroke="#5e5e5e" stroke-width="2" fill="none"/><path d="M595 301h-1.03v-2H595z" fill="#5e5e5e"/><path d="M519.53 300l14.27-4.64v9.28z" stroke="#5e5e5e" stroke-width="2" fill="#5e5e5e"/><path d="M460 250c0 5.52-4.48 10-10 10s-10-4.48-10-10 4.48-10 10-10 10 4.48 10 10z" stroke="#5e5e5e" stroke-width="3" fill="#fff"/><path d="M450 262.5v125.82" stroke="#5e5e5e" stroke-width="2" fill="none"/><path d="M450 261.5l1-.12v1.16h-2v-1.16z" fill="#5e5e5e"/><path d="M450 403.58l-4.64-14.26h9.28z" stroke="#5e5e5e" stroke-width="2" fill="#5e5e5e"/><path d="M460.78 256.22l22.08 22.08" stroke="#5e5e5e" stroke-width="2" fill="none"/><path d="M461.5 255.53l-1.4 1.42-.6-.6.48-.6.5-1.24z" fill="#5e5e5e"/><path d="M493.66 289.1l-13.37-6.8 6.55-6.57z" stroke="#5e5e5e" stroke-width="2" fill="#5e5e5e"/></g><defs><path fill="#333" d="M140-251c81 0 123 46 123 126C263-46 219 4 140 4 59 4 17-45 17-125s42-126 123-126zm0 227c63 0 89-41 89-101s-29-99-89-99c-61 0-89 39-89 99S79-25 140-24" id="f"/><path fill="#333" d="M114-163C36-179 61-72 57 0H25l-1-190h30c1 12-1 29 2 39 6-27 23-49 58-41v29" id="g"/><path fill="#333" d="M24-231v-30h32v30H24zM24 0v-190h32V0H24" id="h"/><path fill="#333" d="M177-190C167-65 218 103 67 71c-23-6-38-20-44-43l32-5c15 47 100 32 89-28v-30C133-14 115 1 83 1 29 1 15-40 15-95c0-56 16-97 71-98 29-1 48 16 59 35 1-10 0-23 2-32h30zM94-22c36 0 50-32 50-73 0-42-14-75-50-75-39 0-46 34-46 75s6 73 46 73" id="i"/><path fill="#333" d="M117-194c89-4 53 116 60 194h-32v-121c0-31-8-49-39-48C34-167 62-67 57 0H25l-1-190h30c1 10-1 24 2 32 11-22 29-35 61-36" id="j"/><g id="a"><use transform="matrix(0.06172839506172839,0,0,0.06172839506172839,0,0)" xlink:href="#f"/><use transform="matrix(0.06172839506172839,0,0,0.06172839506172839,17.28395061728395,0)" xlink:href="#g"/><use transform="matrix(0.06172839506172839,0,0,0.06172839506172839,24.629629629629626,0)" xlink:href="#h"/><use transform="matrix(0.06172839506172839,0,0,0.06172839506172839,29.50617283950617,0)" xlink:href="#i"/><use transform="matrix(0.06172839506172839,0,0,0.06172839506172839,41.85185185185185,0)" xlink:href="#h"/><use transform="matrix(0.06172839506172839,0,0,0.06172839506172839,46.72839506172839,0)" xlink:href="#j"/></g><path fill="#333" d="M210-169c-67 3-38 105-44 169h-31v-121c0-29-5-50-35-48C34-165 62-65 56 0H25l-1-190h30c1 10-1 24 2 32 10-44 99-50 107 0 11-21 27-35 58-36 85-2 47 119 55 194h-31v-121c0-29-5-49-35-48" id="k"/><path fill="#333" d="M141-36C126-15 110 5 73 4 37 3 15-17 15-53c-1-64 63-63 125-63 3-35-9-54-41-54-24 1-41 7-42 31l-33-3c5-37 33-52 76-52 45 0 72 20 72 64v82c-1 20 7 32 28 27v20c-31 9-61-2-59-35zM48-53c0 20 12 33 32 33 41-3 63-29 60-74-43 2-92-5-92 41" id="l"/><g id="c"><use transform="matrix(0.06172839506172839,0,0,0.06172839506172839,0,0)" xlink:href="#k"/><use transform="matrix(0.06172839506172839,0,0,0.06172839506172839,18.456790123456788,0)" xlink:href="#l"/><use transform="matrix(0.06172839506172839,0,0,0.06172839506172839,30.80246913580247,0)" xlink:href="#h"/><use transform="matrix(0.06172839506172839,0,0,0.06172839506172839,35.67901234567901,0)" xlink:href="#j"/></g><path fill="#333" d="M135-143c-3-34-86-38-87 0 15 53 115 12 119 90S17 21 10-45l28-5c4 36 97 45 98 0-10-56-113-15-118-90-4-57 82-63 122-42 12 7 21 19 24 35" id="m"/><path fill="#333" d="M59-47c-2 24 18 29 38 22v24C64 9 27 4 27-40v-127H5v-23h24l9-43h21v43h35v23H59v120" id="n"/><g id="d"><use transform="matrix(0.06172839506172839,0,0,0.06172839506172839,0,0)" xlink:href="#m"/><use transform="matrix(0.06172839506172839,0,0,0.06172839506172839,11.11111111111111,0)" xlink:href="#n"/><use transform="matrix(0.06172839506172839,0,0,0.06172839506172839,17.28395061728395,0)" xlink:href="#l"/><use transform="matrix(0.06172839506172839,0,0,0.06172839506172839,29.629629629629626,0)" xlink:href="#i"/><use transform="matrix(0.06172839506172839,0,0,0.06172839506172839,41.9753086419753,0)" xlink:href="#h"/><use transform="matrix(0.06172839506172839,0,0,0.06172839506172839,46.85185185185185,0)" xlink:href="#j"/><use transform="matrix(0.06172839506172839,0,0,0.06172839506172839,59.197530864197525,0)" xlink:href="#i"/></g><path fill="#333" d="M101-234c-31-9-42 10-38 44h38v23H63V0H32v-167H5v-23h27c-7-52 17-82 69-68v24" id="o"/><path fill="#333" d="M100-194c63 0 86 42 84 106H49c0 40 14 67 53 68 26 1 43-12 49-29l28 8c-11 28-37 45-77 45C44 4 14-33 15-96c1-61 26-98 85-98zm52 81c6-60-76-77-97-28-3 7-6 17-6 28h103" id="p"/><path fill="#333" d="M0 4l72-265h28L28 4H0" id="q"/><path fill="#333" d="M85-194c31 0 48 13 60 33l-1-100h32l1 261h-30c-2-10 0-23-3-31C134-8 116 4 85 4 32 4 16-35 15-94c0-66 23-100 70-100zm9 24c-40 0-46 34-46 75 0 40 6 74 45 74 42 0 51-32 51-76 0-42-9-74-50-73" id="r"/><path fill="#333" d="M16-82v-28h88v28H16" id="s"/><path fill="#333" d="M96-169c-40 0-48 33-48 73s9 75 48 75c24 0 41-14 43-38l32 2c-6 37-31 61-74 61-59 0-76-41-82-99-10-93 101-131 147-64 4 7 5 14 7 22l-32 3c-4-21-16-35-41-35" id="t"/><path fill="#333" d="M106-169C34-169 62-67 57 0H25v-261h32l-1 103c12-21 28-36 61-36 89 0 53 116 60 194h-32v-121c2-32-8-49-39-48" id="u"/><path fill="#333" d="M143 0L79-87 56-68V0H24v-261h32v163l83-92h37l-77 82L181 0h-38" id="v"/><path fill="#333" d="M115-194c53 0 69 39 70 98 0 66-23 100-70 100C84 3 66-7 56-30L54 0H23l1-261h32v101c10-23 28-34 59-34zm-8 174c40 0 45-34 45-75 0-40-5-75-45-74-42 0-51 32-51 76 0 43 10 73 51 73" id="w"/><path fill="#333" d="M100-194c62-1 85 37 85 99 1 63-27 99-86 99S16-35 15-95c0-66 28-99 85-99zM99-20c44 1 53-31 53-75 0-43-8-75-51-75s-53 32-53 75 10 74 51 75" id="x"/><path fill="#333" d="M141 0L90-78 38 0H4l68-98-65-92h35l48 74 47-74h35l-64 92 68 98h-35" id="y"/><g id="e"><use transform="matrix(0.06172839506172839,0,0,0.06172839506172839,0,0)" xlink:href="#o"/><use transform="matrix(0.06172839506172839,0,0,0.06172839506172839,6.172839506172839,0)" xlink:href="#p"/><use transform="matrix(0.06172839506172839,0,0,0.06172839506172839,18.51851851851852,0)" xlink:href="#l"/><use transform="matrix(0.06172839506172839,0,0,0.06172839506172839,30.864197530864196,0)" xlink:href="#n"/><use transform="matrix(0.06172839506172839,0,0,0.06172839506172839,37.03703703703704,0)" xlink:href="#q"/><use transform="matrix(0.06172839506172839,0,0,0.06172839506172839,43.20987654320988,0)" xlink:href="#l"/><use transform="matrix(0.06172839506172839,0,0,0.06172839506172839,55.55555555555556,0)" xlink:href="#r"/><use transform="matrix(0.06172839506172839,0,0,0.06172839506172839,67.90123456790124,0)" xlink:href="#r"/><use transform="matrix(0.06172839506172839,0,0,0.06172839506172839,80.24691358024693,0)" xlink:href="#s"/><use transform="matrix(0.06172839506172839,0,0,0.06172839506172839,87.59259259259261,0)" xlink:href="#t"/><use transform="matrix(0.06172839506172839,0,0,0.06172839506172839,98.70370370370372,0)" xlink:href="#u"/><use transform="matrix(0.06172839506172839,0,0,0.06172839506172839,111.04938271604941,0)" xlink:href="#p"/><use transform="matrix(0.06172839506172839,0,0,0.06172839506172839,123.39506172839509,0)" xlink:href="#t"/><use transform="matrix(0.06172839506172839,0,0,0.06172839506172839,134.5061728395062,0)" xlink:href="#v"/><use transform="matrix(0.06172839506172839,0,0,0.06172839506172839,145.61728395061732,0)" xlink:href="#w"/><use transform="matrix(0.06172839506172839,0,0,0.06172839506172839,157.962962962963,0)" xlink:href="#x"/><use transform="matrix(0.06172839506172839,0,0,0.06172839506172839,170.30864197530866,0)" xlink:href="#y"/></g></defs></g></svg>