<svg xmlns="http://www.w3.org/2000/svg" xmlns:xlink="http://www.w3.org/1999/xlink" xmlns:lucid="lucid" width="560" height="790.16"><g transform="translate(-140 -20)" lucid:page-tab-id="dOqV17BCciJj"><path d="M200 750.5c0-3.32 2.7-6 6-6h448c3.3 0 6 2.68 6 6V774c0 3.3-2.7 6-6 6H206c-3.3 0-6-2.7-6-6z" fill="none"/><use xlink:href="#a" transform="matrix(1,0,0,1,199.99999999999994,744.4977511244379) translate(200.46296296296296 17.77777777777778)"/><use xlink:href="#b" transform="matrix(1,0,0,1,199.99999999999994,744.4977511244379) translate(230 44.44444444444444)"/><path d="M276.67 146c0-3.3 2.68-6 6-6h294.66c3.32 0 6 2.7 6 6v563.7c0 3.33-2.68 6-6 6H282.67c-3.32 0-6-2.67-6-6z" stroke="#5e5e5e" stroke-width="3" fill="#fff"/><path d="M160 166c0-3.3 2.7-6 6-6h68c3.3 0 6 2.7 6 6v28c0 3.3-2.7 6-6 6h-68c-3.3 0-6-2.7-6-6z" stroke="#000" stroke-opacity="0" stroke-width="3" fill="#fff" fill-opacity="0"/><use xlink:href="#c" transform="matrix(1,0,0,1,165,165) translate(10.987654320987655 19.65277777777778)"/><path d="M241 180h94" stroke="#5e5e5e" stroke-width="2" fill="none"/><path d="M241.03 181H240v-2h1.03z" fill="#5e5e5e"/><path d="M350.25 180L336 184.64v-9.28z" stroke="#5e5e5e" stroke-width="2" fill="#5e5e5e"/><path d="M160 46c0-3.3 2.7-6 6-6h68c3.3 0 6 2.7 6 6v28c0 3.3-2.7 6-6 6h-68c-3.3 0-6-2.7-6-6z" stroke="#000" stroke-opacity="0" stroke-width="3" fill="#fff" fill-opacity="0"/><use xlink:href="#d" transform="matrix(1,0,0,1,165,45) translate(4.753086419753085 19.65277777777778)"/><path d="M240.76 60.66L351.2 156.4" stroke="#5e5e5e" stroke-width="2" fill="none"/><path d="M241.43 59.92l-1.3 1.5-.13-.1v-2.64z" fill="#5e5e5e"/><path d="M362.73 166.4l-13.8-5.85 6.06-7z" stroke="#5e5e5e" stroke-width="2" fill="#5e5e5e"/><g class="lucid-layer" lucid:layer-id="hjvWFD3VMiqe" display="block"><path d="M375 578.33c0 5.53-4.48 10-10 10s-10-4.47-10-10c0-5.52 4.48-10 10-10s10 4.48 10 10z" stroke="#5e5e5e" stroke-width="3" fill="#fff"/><path d="M350 648.33h30v20h-30z" fill="none"/><path d="M350 652.33h30m-4.5 4h-21m4.5 4h12m-9 4h6m-1.5 4h-3m1.5-20v4z" stroke="#5e5e5e" stroke-width="3" fill="#fff"/><path d="M365 590.85v45.48" stroke="#5e5e5e" stroke-width="2" fill="none"/><path d="M365 589.85l1-.13v1.15h-2v-1.15z" fill="#5e5e5e"/><path d="M365 651.6l-4.64-14.27h9.28z" stroke="#5e5e5e" stroke-width="2" fill="#5e5e5e"/><path d="M375 498.33c0 5.53-4.48 10-10 10s-10-4.47-10-10c0-5.52 4.48-10 10-10s10 4.48 10 10z" stroke="#5e5e5e" stroke-width="3" fill="#fff"/><path d="M365 510.85v37.47" stroke="#5e5e5e" stroke-width="2" fill="none"/><path d="M365 509.85l1-.13v1.15h-2v-1.15z" fill="#5e5e5e"/><path d="M365 563.58l-4.64-14.26h9.28z" stroke="#5e5e5e" stroke-width="2" fill="#5e5e5e"/><path d="M460 578.33c0 5.53-4.48 10-10 10s-10-4.47-10-10c0-5.52 4.48-10 10-10s10 4.48 10 10z" stroke="#5e5e5e" stroke-width="3" fill="#fff"/><path d="M435 648.33h30v20h-30z" fill="none"/><path d="M435 652.33h30m-4.5 4h-21m4.5 4h12m-9 4h6m-1.5 4h-3m1.5-20v4z" stroke="#5e5e5e" stroke-width="3" fill="#fff"/><path d="M450 590.85V636.33" stroke="#5e5e5e" stroke-width="2" fill="none"/><path d="M450 589.85l1-.13v1.15h-2v-1.15z" fill="#5e5e5e"/><path d="M450 651.6l-4.64-14.27h9.28z" stroke="#5e5e5e" stroke-width="2" fill="#5e5e5e"/><path d="M460 498.33c0 5.53-4.48 10-10 10s-10-4.47-10-10c0-5.52 4.48-10 10-10s10 4.48 10 10z" stroke="#5e5e5e" stroke-width="3" fill="#fff"/><path d="M450 510.85v37.47" stroke="#5e5e5e" stroke-width="2" fill="none"/><path d="M450 509.85l1-.13v1.15h-2v-1.15z" fill="#5e5e5e"/><path d="M450 563.58l-4.64-14.26h9.28z" stroke="#5e5e5e" stroke-width="2" fill="#5e5e5e"/><path d="M460 418.33c0 5.53-4.48 10-10 10s-10-4.47-10-10c0-5.52 4.48-10 10-10s10 4.48 10 10z" stroke="#5e5e5e" stroke-width="3" fill="#fff"/><path d="M450 430.85v37.47" stroke="#5e5e5e" stroke-width="2" fill="none"/><path d="M450 429.85l1-.13v1.15h-2v-1.15z" fill="#5e5e5e"/><path d="M450 483.58l-4.64-14.26h9.28z" stroke="#5e5e5e" stroke-width="2" fill="#5e5e5e"/><path d="M480 250h119" stroke="#5e5e5e" stroke-width="2" fill="none"/><path d="M464.75 250l14.26-4.64v9.28z" stroke="#5e5e5e" stroke-width="2" fill="#5e5e5e"/><path d="M600 251h-1.03v-2H600z" fill="#5e5e5e"/><path d="M600 236c0-3.3 2.7-6 6-6h68c3.3 0 6 2.7 6 6v28c0 3.3-2.7 6-6 6h-68c-3.3 0-6-2.7-6-6z" stroke="#000" stroke-opacity="0" stroke-width="3" fill="#fff" fill-opacity="0"/><use xlink:href="#e" transform="matrix(1,0,0,1,605,235) translate(-0.7716049382716008 19.444444444444443)"/><path d="M515 378.33c0 5.53-4.48 10-10 10s-10-4.47-10-10c0-5.52 4.48-10 10-10s10 4.48 10 10z" stroke="#5e5e5e" stroke-width="3" fill="#fff"/><path d="M494.64 385.2l-20.04 20.05" stroke="#5e5e5e" stroke-width="2" fill="none"/><path d="M495.02 384.08l.94 1.22-.63.63-1.42-1.4.93-.92z" fill="#5e5e5e"/><path d="M463.8 416.05l6.8-13.37 6.57 6.56z" stroke="#5e5e5e" stroke-width="2" fill="#5e5e5e"/><path d="M515 298.33c0 5.53-4.48 10-10 10s-10-4.47-10-10c0-5.52 4.48-10 10-10s10 4.48 10 10z" stroke="#5e5e5e" stroke-width="3" fill="#fff"/><path d="M505 310.85v37.47" stroke="#5e5e5e" stroke-width="2" fill="none"/><path d="M505 309.85l1-.13v1.15h-2v-1.15z" fill="#5e5e5e"/><path d="M505 363.58l-4.64-14.26h9.28z" stroke="#5e5e5e" stroke-width="2" fill="#5e5e5e"/><path d="M460 250c0 5.52-4.48 10-10 10s-10-4.48-10-10 4.48-10 10-10 10 4.48 10 10z" stroke="#5e5e5e" stroke-width="3" fill="#fff"/><path d="M450 262.5v125.82" stroke="#5e5e5e" stroke-width="2" fill="none"/><path d="M450 261.5l1-.12v1.16h-2v-1.16z" fill="#5e5e5e"/><path d="M450 403.58l-4.64-14.26h9.28z" stroke="#5e5e5e" stroke-width="2" fill="#5e5e5e"/><path d="M460.78 256.22l22.08 22.08" stroke="#5e5e5e" stroke-width="2" fill="none"/><path d="M461.5 255.53l-1.4 1.42-.6-.6.48-.6.5-1.24z" fill="#5e5e5e"/><path d="M493.66 289.1l-13.37-6.8 6.55-6.57z" stroke="#5e5e5e" stroke-width="2" fill="#5e5e5e"/><path d="M375 180c0 5.52-4.48 10-10 10s-10-4.48-10-10 4.48-10 10-10 10 4.48 10 10z" stroke="#5e5e5e" stroke-width="3" fill="#fff"/><path d="M365 192.5v275.82" stroke="#5e5e5e" stroke-width="2" fill="none"/><path d="M365 191.5l1-.12v1.16h-2v-1.16z" fill="#5e5e5e"/><path d="M365 483.58l-4.64-14.26h9.28z" stroke="#5e5e5e" stroke-width="2" fill="#5e5e5e"/><path d="M375.74 186.4l51.94 43.57" stroke="#5e5e5e" stroke-width="2" fill="none"/><path d="M376.4 185.64l-1.28 1.53-.75-.63.6-.8.4-.96z" fill="#5e5e5e"/><path d="M439.38 239.78l-13.9-5.62 5.95-7.1z" stroke="#5e5e5e" stroke-width="2" fill="#5e5e5e"/></g><defs><path fill="#333" d="M140-251c81 0 123 46 123 126C263-46 219 4 140 4 59 4 17-45 17-125s42-126 123-126zm0 227c63 0 89-41 89-101s-29-99-89-99c-61 0-89 39-89 99S79-25 140-24" id="f"/><path fill="#333" d="M114-163C36-179 61-72 57 0H25l-1-190h30c1 12-1 29 2 39 6-27 23-49 58-41v29" id="g"/><path fill="#333" d="M24-231v-30h32v30H24zM24 0v-190h32V0H24" id="h"/><path fill="#333" d="M177-190C167-65 218 103 67 71c-23-6-38-20-44-43l32-5c15 47 100 32 89-28v-30C133-14 115 1 83 1 29 1 15-40 15-95c0-56 16-97 71-98 29-1 48 16 59 35 1-10 0-23 2-32h30zM94-22c36 0 50-32 50-73 0-42-14-75-50-75-39 0-46 34-46 75s6 73 46 73" id="i"/><path fill="#333" d="M117-194c89-4 53 116 60 194h-32v-121c0-31-8-49-39-48C34-167 62-67 57 0H25l-1-190h30c1 10-1 24 2 32 11-22 29-35 61-36" id="j"/><g id="a"><use transform="matrix(0.06172839506172839,0,0,0.06172839506172839,0,0)" xlink:href="#f"/><use transform="matrix(0.06172839506172839,0,0,0.06172839506172839,17.28395061728395,0)" xlink:href="#g"/><use transform="matrix(0.06172839506172839,0,0,0.06172839506172839,24.629629629629626,0)" xlink:href="#h"/><use transform="matrix(0.06172839506172839,0,0,0.06172839506172839,29.50617283950617,0)" xlink:href="#i"/><use transform="matrix(0.06172839506172839,0,0,0.06172839506172839,41.85185185185185,0)" xlink:href="#h"/><use transform="matrix(0.06172839506172839,0,0,0.06172839506172839,46.72839506172839,0)" xlink:href="#j"/></g><path fill="#333" d="M210-169c-67 3-38 105-44 169h-31v-121c0-29-5-50-35-48C34-165 62-65 56 0H25l-1-190h30c1 10-1 24 2 32 10-44 99-50 107 0 11-21 27-35 58-36 85-2 47 119 55 194h-31v-121c0-29-5-49-35-48" id="k"/><path fill="#333" d="M141-36C126-15 110 5 73 4 37 3 15-17 15-53c-1-64 63-63 125-63 3-35-9-54-41-54-24 1-41 7-42 31l-33-3c5-37 33-52 76-52 45 0 72 20 72 64v82c-1 20 7 32 28 27v20c-31 9-61-2-59-35zM48-53c0 20 12 33 32 33 41-3 63-29 60-74-43 2-92-5-92 41" id="l"/><g id="c"><use transform="matrix(0.06172839506172839,0,0,0.06172839506172839,0,0)" xlink:href="#k"/><use transform="matrix(0.06172839506172839,0,0,0.06172839506172839,18.456790123456788,0)" xlink:href="#l"/><use transform="matrix(0.06172839506172839,0,0,0.06172839506172839,30.80246913580247,0)" xlink:href="#h"/><use transform="matrix(0.06172839506172839,0,0,0.06172839506172839,35.67901234567901,0)" xlink:href="#j"/></g><path fill="#333" d="M108 0H70L1-190h34L89-25l56-165h34" id="m"/><path fill="#333" d="M27 0v-27h64v-190l-56 39v-29l58-41h29v221h61V0H27" id="n"/><path fill="#333" d="M33 0v-38h34V0H33" id="o"/><path fill="#333" d="M99-251c64 0 84 50 84 122C183-37 130 33 47-8c-14-7-20-23-25-40l30-5c6 39 69 39 84 7 9-19 16-44 16-74-10 22-31 35-62 35-49 0-73-33-73-83 0-54 28-83 82-83zm-1 141c31-1 51-18 51-49 0-36-14-67-51-67-34 0-49 23-49 58 0 34 15 58 49 58" id="p"/><path fill="#333" d="M126-127c33 6 58 20 58 59 0 88-139 92-164 29-3-8-5-16-6-25l32-3c6 27 21 44 54 44 32 0 52-15 52-46 0-38-36-46-79-43v-28c39 1 72-4 72-42 0-27-17-43-46-43-28 0-47 15-49 41l-32-3c6-42 35-63 81-64 48-1 79 21 79 65 0 36-21 52-52 59" id="q"/><g id="d"><use transform="matrix(0.06172839506172839,0,0,0.06172839506172839,0,0)" xlink:href="#m"/><use transform="matrix(0.06172839506172839,0,0,0.06172839506172839,11.11111111111111,0)" xlink:href="#n"/><use transform="matrix(0.06172839506172839,0,0,0.06172839506172839,23.45679012345679,0)" xlink:href="#o"/><use transform="matrix(0.06172839506172839,0,0,0.06172839506172839,29.62962962962963,0)" xlink:href="#p"/><use transform="matrix(0.06172839506172839,0,0,0.06172839506172839,41.97530864197531,0)" xlink:href="#o"/><use transform="matrix(0.06172839506172839,0,0,0.06172839506172839,48.14814814814815,0)" xlink:href="#q"/></g><path fill="#333" d="M135-143c-3-34-86-38-87 0 15 53 115 12 119 90S17 21 10-45l28-5c4 36 97 45 98 0-10-56-113-15-118-90-4-57 82-63 122-42 12 7 21 19 24 35" id="r"/><path fill="#333" d="M59-47c-2 24 18 29 38 22v24C64 9 27 4 27-40v-127H5v-23h24l9-43h21v43h35v23H59v120" id="s"/><g id="e"><use transform="matrix(0.06172839506172839,0,0,0.06172839506172839,0,0)" xlink:href="#r"/><use transform="matrix(0.06172839506172839,0,0,0.06172839506172839,11.11111111111111,0)" xlink:href="#s"/><use transform="matrix(0.06172839506172839,0,0,0.06172839506172839,17.28395061728395,0)" xlink:href="#l"/><use transform="matrix(0.06172839506172839,0,0,0.06172839506172839,29.629629629629626,0)" xlink:href="#i"/><use transform="matrix(0.06172839506172839,0,0,0.06172839506172839,41.9753086419753,0)" xlink:href="#h"/><use transform="matrix(0.06172839506172839,0,0,0.06172839506172839,46.85185185185185,0)" xlink:href="#j"/><use transform="matrix(0.06172839506172839,0,0,0.06172839506172839,59.197530864197525,0)" xlink:href="#i"/></g></defs></g></svg>