<svg height="29" viewBox="0 0 160 29" width="160" xmlns="http://www.w3.org/2000/svg" xmlns:xlink="http://www.w3.org/1999/xlink"><linearGradient id="a" x1="31.253688%" x2="58.04879%" y1="4.936632%" y2="81.829714%"><stop offset="0" stop-color="#77cffe"/><stop offset="1" stop-color="#289ce1"/></linearGradient><linearGradient id="b" x1="32.904609%" x2="66.380391%" y1="10.503874%" y2="58.447315%"><stop offset="0" stop-color="#289ce1"/><stop offset="1" stop-color="#006ab0"/></linearGradient><linearGradient id="c" x1="0%" x2="100%" y1="50%" y2="50%"><stop offset="0" stop-color="#006ab0" stop-opacity=".5"/><stop offset="1" stop-color="#006ab0" stop-opacity="0"/></linearGradient><g fill="none" fill-rule="evenodd" transform="translate(.625 .5)"><path d="m16.1039437 11.8100797v4.1435182h3.9096602c2.1562409 0 3.90395 1.7351429 3.90395 3.8772591 0 2.1419831-1.7523415 3.8780749-3.9085824 3.8780749s-3.9059655-1.7544051-3.9059655-3.8963883l.0009377-11.85500496c0-1.77576876-.6013301-3.56744171-1.6819087-4.94159065-.4088362-.4811801-.273182-.47078137-.7593035-.0641682-.0117529.00983067-.0230765.02015583-.0339397.03094715l-2.2504088 2.23552815c-.3779171.37541827-.3397293.2405631-.0761374.6604791.4145587.66041437.621838 1.35334919.621838 2.07880445v11.87331836c0 4.4316801 3.623709 8.018648 8.0848879 8.018648 4.4611788 0 8.0817531-3.5869679 8.0817531-8.018648s-3.6205743-8.0207773-8.0817531-8.0207773c-2.9741193 0-4.2757952 0-3.9050278 0z" fill="url(#a)"/><path d="m8.03923845 4.15498844c.86052621 0 1.61292244.22434975 2.25718865.67304926l2.9388135-2.93812251c-1.4621337-1.25994346-3.1941344-1.88991519-5.19600215-1.88991519-4.4328623 0-8.03923845 3.6078344-8.03923845 8.04232547 0 4.43435793 3.60637615 8.04205913 8.03923845 8.04205913h2.84343385v-4.1549884h-2.84343385c-2.14268766 0-3.88590923-1.7438621-3.88590923-3.88707073 0-2.14360811 1.74322157-3.88733703 3.88590923-3.88733703z" fill="url(#b)"/><path d="m16.0969143 11.8398942h4.1136558v.9636252 3.1825718h-4.1136558z" fill="url(#c)"/><path d="m157.535096 18.2406915c1.033356 0 1.868186.8450106 1.868186 1.878367s-.83483 1.8834575-1.868186 1.8834575c-1.028266 0-1.852915-.8501011-1.852915-1.8834575s.824649-1.878367 1.852915-1.878367zm0 .3716011c-.814468 0-1.455862.6515744-1.455862 1.5067659s.641394 1.5118564 1.455862 1.5118564c.440314 0 .830045-.1919208 1.095196-.5033748l-.472997-.0005773-.549639-.7635639h-.1963v.7635639h-.497292v-2.0463511h.909521c.51038 0 .889892.2799734.889892.6413936 0 .2850638-.235559.5192234-.575812.6057607l.542945.7372661c.194992-.2563233.310347-.5832957.310347-.9459736 0-.8551915-.641393-1.5067659-1.455861-1.5067659zm.216513.8042872h-.340253v.6108511h.340253c.294449 0 .458032-.1119894.458032-.3003352 0-.1985266-.163583-.3105159-.458032-.3105159zm-20.613264-9.69423292c4.06486 0 5.926974 3.17865742 5.926974 6.65459942 0 .1568094-.007415.328553-.018008.5066971l-.008474.1346747-.018935.2733498h-8.470351c.340631 1.5778947 1.430649 2.4011441 2.974842 2.4011441 1.125974 0 1.951442-.3458438 2.872906-1.1846351l.079227-.0731071 1.975658 1.760839c-1.135436 1.4178185-2.770463 2.286804-4.973209 2.286804-3.619542 0-6.304298-2.5326651-6.357631-6.2222874l-.000809-.1121595.000742-.1505129c.04887-3.4513725 2.509934-6.27540612 6.017068-6.27540612zm-13.667808 0c4.06486 0 5.926975 3.17865742 5.926975 6.65459942 0 .1568094-.007415.328553-.018008.5066971l-.008475.1346747-.018935.2733498h-8.47035c.34063 1.5778947 1.430649 2.4011441 2.974841 2.4011441 1.125974 0 1.951443-.3458438 2.872906-1.1846351l.079227-.0731071 1.975658 1.760839c-1.135435 1.4178185-2.770463 2.286804-4.973208 2.286804-3.619542 0-6.304298-2.5326651-6.357631-6.2222874l-.000809-.1121595.000741-.1505129c.048871-3.4513725 2.509934-6.27540612 6.017068-6.27540612zm-57.921081 0c3.7319501 0 6.5068574 2.75679472 6.5619824 6.22901132l.0008361.1054355-.0008429.1511853c-.0555724 3.4731131-2.8529613 6.2747338-6.607393 6.2747338-3.7319502 0-6.5068575-2.7567948-6.5619824-6.2290113l-.0008361-.1054356.0008429-.1511853c.0555723-3.4731131 2.8529612-6.27473372 6.607393-6.27473372zm-19.5067858-3.79609451c2.9507136 0 4.7351828.97499582 6.1981784 2.40148119l.0694268.06826704-2.225454 2.5840884c-1.2262706-1.12053389-2.4752499-1.80657506-4.0648599-1.80657506-2.6525614 0-4.5707979 2.19602236-4.6092795 4.90223186l-.0005896.0830007.0005644.127922c.0372161 2.7074862 1.9115094 4.9487827 4.6093047 4.9487827 1.7031536 0 2.7875834-.6431636 3.9456114-1.6656932l.0773185-.0687278.1554735-.1407582 2.2254541 2.2639359c-1.6350275 1.760839-3.4517246 2.8585049-6.5174011 2.8585049-4.6312153 0-8.0828195-3.5636615-8.1513885-8.0948907l-.00104-.1376035.0010199-.1820083c.0672538-4.4886446 3.454111-8.14195793 8.2876609-8.14195793zm103.1284548 3.84183059c1.544192 0 3.224637.52596494 4.541743 1.41781844l-1.317106 2.4011441c-1.203562-.7089092-2.407123-1.143402-3.292763-1.143402-.840223 0-1.271688.3658887-1.271688.8461175v.0457361c0 .6860412 1.158144 1.0061937 2.47525 1.4635545l.197599.0671482.20195.0707418c1.575253.561798 3.231913 1.4064251 3.278267 3.4114841l.000995.1323802c0 2.7212967-2.021075 3.9561708-4.655286 3.9561708-1.703154 0-3.610686-.571701-5.223004-1.8523112l1.476066-2.2868039c1.317105.9604576 2.702337 1.4635545 3.837773 1.4635545.999183 0 1.453357-.3658886 1.453357-.9147216v-.045736c0-.7406704-1.137522-.9967046-2.446403-1.3951109l-.327984-.0995696-.132871-.0420395c-1.574261-.50644-3.202732-1.3405306-3.245925-3.4754876l-.000878-.1331013c0-2.4926163 1.998367-3.88756664 4.450908-3.88756664zm-49.7516212-4.2534553v16.69366864h-3.4517246v-1.760839c-.8402225 1.1434019-1.9983669 1.9895194-3.7923554 1.9895194-2.8102034 0-5.486866-2.1964706-5.5401182-6.2122016l-.0008081-.1222453.0007946-.1679813c.0523665-4.015731 2.684965-6.21220162 5.5401317-6.21220162 1.7332863 0 2.8414867.75130472 3.647614 1.66075832l.04898.0558734.0957614.1128114v-6.03716234zm-22.2062843 4.43639961v6.83754373c0 1.6464988.7720963 2.4926163 2.0892018 2.4926163 1.2951536 0 2.129188-.8181486 2.1566293-2.4109586l.0006985-.0816577v-6.83754373h3.4517247v12.25726903h-3.4517247v-1.737971c-.794805 1.0290618-1.8166971 1.9666514-3.5652681 1.9666514-2.5834216 0-4.10014-1.7007962-4.1324589-4.460379l-.0005272-.0903608v-7.93520963zm32.6122185-3.75035843c1.816697 0 3.247346.50309686 4.155695 1.41781843.70397.70890921 1.066955 1.56804626 1.088954 2.61899203l.001064.1023046-.000908.1417537c-.033213 1.7463763-.973133 2.7281853-2.088293 3.3570563l.165267.065474c1.714693.6984746 2.776045 1.7499047 2.808794 3.7708576l.00078.0969712-.000707.1331103c-.046183 2.8401709-2.350105 4.2744573-5.842775 4.302859l-7.668203.0004303v-16.00762746zm-52.4539578-.68604118v16.69366864h-3.4517247v-16.69366864zm35.6895835 7.15769624c-1.5905306 0-2.9379711 1.2907413-2.9740979 3.3014348l-.0007437.083035.0007437.127869c.0361268 1.9893415 1.3835673 3.3023369 2.9740979 3.3023369s2.9158719-1.3129954 2.9514015-3.3023369l.0007314-.0821329v-.0457361c0-2.0352554-1.3398142-3.3844698-2.9521329-3.3844698zm-27.5570251.0457361c-1.9493161 0-3.1248806 1.4915735-3.1558825 3.2666201l-.0006289.0721136.0006708.1169264c.0334985 1.7766352 1.3188251 3.3132795 3.201258 3.3132795 1.9493161 0 3.1248806-1.4915734 3.1558824-3.26662l.0006289-.0721137-.0006707-.1169264c-.0334985-1.7766351-1.3188251-3.3132795-3.201258-3.3132795zm44.3895254 2.881373h-4.042151v3.521678h4.155695c1.517569 0 2.442962-.5300708 2.474421-1.6770344l.000829-.0609366-.000663-.0991318c-.026108-1.0433237-.824042-1.6845752-2.588131-1.6845752zm27.244781-3.0871853c-1.406401 0-2.330002.9944739-2.619788 2.5271998l-.014423.0797566h5.200295c-.204378-1.5550266-1.112727-2.6069564-2.566084-2.6069564zm-13.667808 0c-1.406401 0-2.330001.9944739-2.619788 2.5271998l-.014423.0797566h5.200296c-.204379-1.5550266-1.112727-2.6069564-2.566085-2.6069564zm-14.167399-3.22439357h-3.451725v3.38446977h3.224638c1.51802 0 2.487403-.4861872 2.519827-1.6323606l.00084-.0598743v-.045736c0-1.05192985-.817514-1.64649887-2.29358-1.64649887z" fill="#1e252c" fill-rule="nonzero"/></g></svg>