<svg xmlns="http://www.w3.org/2000/svg" xmlns:xlink="http://www.w3.org/1999/xlink" xmlns:lucid="lucid" width="960.43" height="489.33"><g transform="translate(-30 -95.33333333333337)" lucid:page-tab-id="dOqV17BCciJj"><path d="M260 546c0-3.3 2.7-6 6-6h208c3.3 0 6 2.7 6 6v12.67c0 3.3-2.7 6-6 6H266c-3.3 0-6-2.7-6-6z" fill="none"/><use xlink:href="#a" transform="matrix(1,0,0,1,260,540) translate(83.48765432098766 17.77777777777778)"/><path d="M296.67 126c0-3.3 2.68-6 6-6h134.66c3.32 0 6 2.7 6 6v388c0 3.3-2.68 6-6 6H302.67c-3.32 0-6-2.7-6-6z" stroke="#5e5e5e" stroke-width="3" fill="#fff"/><path d="M200 301c0-3.3 2.7-6 6-6h58c3.3 0 6 2.7 6 6v18c0 3.3-2.7 6-6 6h-58c-3.3 0-6-2.7-6-6z" stroke="#000" stroke-opacity="0" stroke-width="3" fill="#fff" fill-opacity="0"/><use xlink:href="#b" transform="matrix(1,0,0,1,204.99999999999997,300) translate(6.487654320987655 17.77777777777778)"/><path d="M50 222.33c0-3.3 2.7-6 6-6h208c3.3 0 6 2.7 6 6v15.34c0 3.3-2.7 6-6 6H56c-3.3 0-6-2.7-6-6z" stroke="#000" stroke-opacity="0" stroke-width="3" fill="#fff" fill-opacity="0"/><use xlink:href="#c" transform="matrix(1,0,0,1,55,221.3333333333333) translate(7.685185185185205 17.77777777777778)"/><path d="M480.28 320h229.89" stroke="#5e5e5e" stroke-width="10" fill="none"/><path d="M461 320l14.28-4.64v9.28z" stroke="#5e5e5e" stroke-width="10" fill="#5e5e5e"/><path d="M710.04 320h5.13" stroke="#5e5e5e" stroke-width="10" fill="none"/><use xlink:href="#d" transform="matrix(1,0,0,1,556.370370537037,294.6666666666666) translate(0.004999999999999005 14.222222222222223)"/><path d="M271 230h69" stroke="#5e5e5e" stroke-width="2" fill="none"/><path d="M271.03 231H270v-2h1.03z" fill="#5e5e5e"/><path d="M355.25 230L341 234.64v-9.28z" stroke="#5e5e5e" stroke-width="2" fill="#5e5e5e"/><path d="M380 390c0 5.52-4.48 10-10 10s-10-4.48-10-10 4.48-10 10-10 10 4.48 10 10z" stroke="#5e5e5e" stroke-width="3" fill="#fff"/><path d="M355 460h30v20h-30z" fill="none"/><path d="M355 464h30m-4.5 4h-21m4.5 4h12m-9 4h6m-1.5 4h-3m1.5-20v4z" stroke="#5e5e5e" stroke-width="3" fill="#fff"/><path d="M370 402.5V448" stroke="#5e5e5e" stroke-width="2" fill="none"/><path d="M370 401.5l1-.12v1.16h-2v-1.16z" fill="#5e5e5e"/><path d="M370 463.26L365.36 449h9.28z" stroke="#5e5e5e" stroke-width="2" fill="#5e5e5e"/><path d="M380 310c0 5.52-4.48 10-10 10s-10-4.48-10-10 4.48-10 10-10 10 4.48 10 10z" stroke="#5e5e5e" stroke-width="3" fill="#fff"/><path d="M370 322.5V360" stroke="#5e5e5e" stroke-width="2" fill="none"/><path d="M370 321.5l1-.12v1.16h-2v-1.16z" fill="#5e5e5e"/><path d="M370 375.25L365.36 361h9.28z" stroke="#5e5e5e" stroke-width="2" fill="#5e5e5e"/><path d="M380 230c0 5.52-4.48 10-10 10s-10-4.48-10-10 4.48-10 10-10 10 4.48 10 10z" stroke="#5e5e5e" stroke-width="3" fill="#ffdf71"/><path d="M370 242.5V280" stroke="#5e5e5e" stroke-width="2" fill="none"/><path d="M370 241.5l1-.12v1.16h-2v-1.16z" fill="#5e5e5e"/><path d="M370 295.25L365.36 281h9.28z" stroke="#5e5e5e" stroke-width="2" fill="#5e5e5e"/><path d="M271 310h69" stroke="#5e5e5e" stroke-width="2" fill="none"/><path d="M271.03 311H270v-2h1.03z" fill="#5e5e5e"/><path d="M355.25 310L341 314.64v-9.28z" stroke="#5e5e5e" stroke-width="2" fill="#5e5e5e"/><path d="M680 541.33c0-3.3 2.7-6 6-6h208c3.3 0 6 2.7 6 6V554c0 3.3-2.7 6-6 6H686c-3.3 0-6-2.7-6-6z" fill="none"/><use xlink:href="#e" transform="matrix(1,0,0,1,680,535.3333333333334) translate(80.46296296296296 17.77777777777778)"/><path d="M716.67 121.33c0-3.3 2.68-6 6-6h134.66c3.32 0 6 2.7 6 6v388c0 3.32-2.68 6-6 6H722.67c-3.32 0-6-2.68-6-6z" stroke="#5e5e5e" stroke-width="3" fill="#fff"/><path d="M900.43 221c0-3.3 2.7-6 6-6h58c3.32 0 6 2.7 6 6v18c0 3.3-2.68 6-6 6h-58c-3.3 0-6-2.7-6-6z" stroke="#000" stroke-opacity="0" stroke-width="3" fill="#fff" fill-opacity="0"/><use xlink:href="#b" transform="matrix(1,0,0,1,905.4330708661416,220) translate(6.487654320987655 17.77777777777778)"/><path d="M899.43 230H825" stroke="#5e5e5e" stroke-width="2" fill="none"/><path d="M900.43 231h-1.02v-2h1.03z" fill="#5e5e5e"/><path d="M809.75 230l14.26-4.64v9.28z" stroke="#5e5e5e" stroke-width="2" fill="#5e5e5e"/><path d="M805 390c0 5.52-4.48 10-10 10s-10-4.48-10-10 4.48-10 10-10 10 4.48 10 10z" stroke="#5e5e5e" stroke-width="3" fill="#fff"/><path d="M780 460h30v20h-30z" fill="none"/><path d="M780 464h30m-4.5 4h-21m4.5 4h12m-9 4h6m-1.5 4h-3m1.5-20v4z" stroke="#5e5e5e" stroke-width="3" fill="#fff"/><path d="M795 402.5V448" stroke="#5e5e5e" stroke-width="2" fill="none"/><path d="M795 401.5l1-.12v1.16h-2v-1.16z" fill="#5e5e5e"/><path d="M795 463.26L790.36 449h9.28z" stroke="#5e5e5e" stroke-width="2" fill="#5e5e5e"/><path d="M805 310c0 5.52-4.48 10-10 10s-10-4.48-10-10 4.48-10 10-10 10 4.48 10 10z" stroke="#5e5e5e" stroke-width="3" fill="#fff"/><path d="M795 322.5V360" stroke="#5e5e5e" stroke-width="2" fill="none"/><path d="M795 321.5l1-.12v1.16h-2v-1.16z" fill="#5e5e5e"/><path d="M795 375.25L790.36 361h9.28z" stroke="#5e5e5e" stroke-width="2" fill="#5e5e5e"/><path d="M805 230c0 5.52-4.48 10-10 10s-10-4.48-10-10 4.48-10 10-10 10 4.48 10 10z" stroke="#5e5e5e" stroke-width="3" fill="#ffdf71"/><path d="M795 242.5V280" stroke="#5e5e5e" stroke-width="2" fill="none"/><path d="M795 241.5l1-.12v1.16h-2v-1.16z" fill="#5e5e5e"/><path d="M795 295.25L790.36 281h9.28z" stroke="#5e5e5e" stroke-width="2" fill="#5e5e5e"/><defs><path fill="#333" d="M30 0v-248h33v221h125V0H30" id="f"/><path fill="#333" d="M100-194c62-1 85 37 85 99 1 63-27 99-86 99S16-35 15-95c0-66 28-99 85-99zM99-20c44 1 53-31 53-75 0-43-8-75-51-75s-53 32-53 75 10 74 51 75" id="g"/><path fill="#333" d="M96-169c-40 0-48 33-48 73s9 75 48 75c24 0 41-14 43-38l32 2c-6 37-31 61-74 61-59 0-76-41-82-99-10-93 101-131 147-64 4 7 5 14 7 22l-32 3c-4-21-16-35-41-35" id="h"/><path fill="#333" d="M141-36C126-15 110 5 73 4 37 3 15-17 15-53c-1-64 63-63 125-63 3-35-9-54-41-54-24 1-41 7-42 31l-33-3c5-37 33-52 76-52 45 0 72 20 72 64v82c-1 20 7 32 28 27v20c-31 9-61-2-59-35zM48-53c0 20 12 33 32 33 41-3 63-29 60-74-43 2-92-5-92 41" id="i"/><path fill="#333" d="M24 0v-261h32V0H24" id="j"/><g id="a"><use transform="matrix(0.06172839506172839,0,0,0.06172839506172839,0,0)" xlink:href="#f"/><use transform="matrix(0.06172839506172839,0,0,0.06172839506172839,12.345679012345679,0)" xlink:href="#g"/><use transform="matrix(0.06172839506172839,0,0,0.06172839506172839,24.691358024691358,0)" xlink:href="#h"/><use transform="matrix(0.06172839506172839,0,0,0.06172839506172839,35.80246913580247,0)" xlink:href="#i"/><use transform="matrix(0.06172839506172839,0,0,0.06172839506172839,48.148148148148145,0)" xlink:href="#j"/></g><path fill="#333" d="M210-169c-67 3-38 105-44 169h-31v-121c0-29-5-50-35-48C34-165 62-65 56 0H25l-1-190h30c1 10-1 24 2 32 10-44 99-50 107 0 11-21 27-35 58-36 85-2 47 119 55 194h-31v-121c0-29-5-49-35-48" id="k"/><path fill="#333" d="M24-231v-30h32v30H24zM24 0v-190h32V0H24" id="l"/><path fill="#333" d="M117-194c89-4 53 116 60 194h-32v-121c0-31-8-49-39-48C34-167 62-67 57 0H25l-1-190h30c1 10-1 24 2 32 11-22 29-35 61-36" id="m"/><g id="b"><use transform="matrix(0.06172839506172839,0,0,0.06172839506172839,0,0)" xlink:href="#k"/><use transform="matrix(0.06172839506172839,0,0,0.06172839506172839,18.456790123456788,0)" xlink:href="#i"/><use transform="matrix(0.06172839506172839,0,0,0.06172839506172839,30.80246913580247,0)" xlink:href="#l"/><use transform="matrix(0.06172839506172839,0,0,0.06172839506172839,35.67901234567901,0)" xlink:href="#m"/></g><path fill="#333" d="M114-163C36-179 61-72 57 0H25l-1-190h30c1 12-1 29 2 39 6-27 23-49 58-41v29" id="n"/><path fill="#333" d="M100-194c63 0 86 42 84 106H49c0 40 14 67 53 68 26 1 43-12 49-29l28 8c-11 28-37 45-77 45C44 4 14-33 15-96c1-61 26-98 85-98zm52 81c6-60-76-77-97-28-3 7-6 17-6 28h103" id="o"/><path fill="#333" d="M59-47c-2 24 18 29 38 22v24C64 9 27 4 27-40v-127H5v-23h24l9-43h21v43h35v23H59v120" id="p"/><path fill="#333" d="M135-143c-3-34-86-38-87 0 15 53 115 12 119 90S17 21 10-45l28-5c4 36 97 45 98 0-10-56-113-15-118-90-4-57 82-63 122-42 12 7 21 19 24 35" id="q"/><path fill="#333" d="M0 4l72-265h28L28 4H0" id="r"/><path fill="#333" d="M177-190C167-65 218 103 67 71c-23-6-38-20-44-43l32-5c15 47 100 32 89-28v-30C133-14 115 1 83 1 29 1 15-40 15-95c0-56 16-97 71-98 29-1 48 16 59 35 1-10 0-23 2-32h30zM94-22c36 0 50-32 50-73 0-42-14-75-50-75-39 0-46 34-46 75s6 73 46 73" id="s"/><g id="c"><use transform="matrix(0.06172839506172839,0,0,0.06172839506172839,0,0)" xlink:href="#n"/><use transform="matrix(0.06172839506172839,0,0,0.06172839506172839,7.345679012345679,0)" xlink:href="#o"/><use transform="matrix(0.06172839506172839,0,0,0.06172839506172839,19.691358024691358,0)" xlink:href="#k"/><use transform="matrix(0.06172839506172839,0,0,0.06172839506172839,38.148148148148145,0)" xlink:href="#g"/><use transform="matrix(0.06172839506172839,0,0,0.06172839506172839,50.49382716049382,0)" xlink:href="#p"/><use transform="matrix(0.06172839506172839,0,0,0.06172839506172839,56.666666666666664,0)" xlink:href="#o"/><use transform="matrix(0.06172839506172839,0,0,0.06172839506172839,69.01234567901234,0)" xlink:href="#q"/><use transform="matrix(0.06172839506172839,0,0,0.06172839506172839,80.12345679012346,0)" xlink:href="#r"/><use transform="matrix(0.06172839506172839,0,0,0.06172839506172839,86.29629629629629,0)" xlink:href="#g"/><use transform="matrix(0.06172839506172839,0,0,0.06172839506172839,98.64197530864197,0)" xlink:href="#n"/><use transform="matrix(0.06172839506172839,0,0,0.06172839506172839,105.98765432098766,0)" xlink:href="#l"/><use transform="matrix(0.06172839506172839,0,0,0.06172839506172839,110.8641975308642,0)" xlink:href="#s"/><use transform="matrix(0.06172839506172839,0,0,0.06172839506172839,123.20987654320989,0)" xlink:href="#l"/><use transform="matrix(0.06172839506172839,0,0,0.06172839506172839,128.08641975308643,0)" xlink:href="#m"/><use transform="matrix(0.06172839506172839,0,0,0.06172839506172839,140.4320987654321,0)" xlink:href="#r"/><use transform="matrix(0.06172839506172839,0,0,0.06172839506172839,146.60493827160494,0)" xlink:href="#k"/><use transform="matrix(0.06172839506172839,0,0,0.06172839506172839,165.06172839506172,0)" xlink:href="#i"/><use transform="matrix(0.06172839506172839,0,0,0.06172839506172839,177.4074074074074,0)" xlink:href="#l"/><use transform="matrix(0.06172839506172839,0,0,0.06172839506172839,182.28395061728392,0)" xlink:href="#m"/></g><path fill="#333" d="M76-208v77h127v40H76V0H24v-248h183v40H76" id="t"/><path fill="#333" d="M185-48c-13 30-37 53-82 52C43 2 14-33 14-96s30-98 90-98c62 0 83 45 84 108H66c0 31 8 55 39 56 18 0 30-7 34-22zm-45-69c5-46-57-63-70-21-2 6-4 13-4 21h74" id="u"/><path fill="#333" d="M115-3C79 11 28 4 28-45v-112H4v-33h27l15-45h31v45h36v33H77v99c-1 23 16 31 38 25v30" id="v"/><path fill="#333" d="M190-63c-7 42-38 67-86 67-59 0-84-38-90-98-12-110 154-137 174-36l-49 2c-2-19-15-32-35-32-30 0-35 28-38 64-6 74 65 87 74 30" id="w"/><path fill="#333" d="M114-157C55-157 80-60 75 0H25v-261h50l-1 109c12-26 28-41 61-42 86-1 58 113 63 194h-50c-7-57 23-157-34-157" id="x"/><g id="d"><use transform="matrix(0.04938271604938272,0,0,0.04938271604938272,0,0)" xlink:href="#t"/><use transform="matrix(0.04938271604938272,0,0,0.04938271604938272,10.814814814814815,0)" xlink:href="#u"/><use transform="matrix(0.04938271604938272,0,0,0.04938271604938272,20.69135802469136,0)" xlink:href="#v"/><use transform="matrix(0.04938271604938272,0,0,0.04938271604938272,26.567901234567902,0)" xlink:href="#w"/><use transform="matrix(0.04938271604938272,0,0,0.04938271604938272,36.44444444444445,0)" xlink:href="#x"/></g><path fill="#333" d="M140-251c81 0 123 46 123 126C263-46 219 4 140 4 59 4 17-45 17-125s42-126 123-126zm0 227c63 0 89-41 89-101s-29-99-89-99c-61 0-89 39-89 99S79-25 140-24" id="y"/><g id="e"><use transform="matrix(0.06172839506172839,0,0,0.06172839506172839,0,0)" xlink:href="#y"/><use transform="matrix(0.06172839506172839,0,0,0.06172839506172839,17.28395061728395,0)" xlink:href="#n"/><use transform="matrix(0.06172839506172839,0,0,0.06172839506172839,24.629629629629626,0)" xlink:href="#l"/><use transform="matrix(0.06172839506172839,0,0,0.06172839506172839,29.50617283950617,0)" xlink:href="#s"/><use transform="matrix(0.06172839506172839,0,0,0.06172839506172839,41.85185185185185,0)" xlink:href="#l"/><use transform="matrix(0.06172839506172839,0,0,0.06172839506172839,46.72839506172839,0)" xlink:href="#m"/></g></defs></g></svg>